<?xml version="1.0" encoding="UTF-8" standalone="no"?>
<!-- Created with Inkscape (http://www.inkscape.org/) -->

<svg
   width="300mm"
   height="300mm"
   viewBox="0 0 300 300"
   version="1.1"
   id="svg1"
   inkscape:version="1.4.2 (ebf0e940, 2025-05-08)"
   sodipodi:docname="appLogo.svg"
   inkscape:export-filename="Documents/logo.png"
   inkscape:export-xdpi="96"
   inkscape:export-ydpi="96"
   xmlns:inkscape="http://www.inkscape.org/namespaces/inkscape"
   xmlns:sodipodi="http://sodipodi.sourceforge.net/DTD/sodipodi-0.dtd"
   xmlns:xlink="http://www.w3.org/1999/xlink"
   xmlns="http://www.w3.org/2000/svg"
   xmlns:svg="http://www.w3.org/2000/svg">
  <sodipodi:namedview
     id="namedview1"
     pagecolor="#505050"
     bordercolor="#eeeeee"
     borderopacity="1"
     inkscape:showpageshadow="0"
     inkscape:pageopacity="0"
     inkscape:pagecheckerboard="0"
     inkscape:deskcolor="#505050"
     inkscape:document-units="mm"
     showgrid="true"
     inkscape:zoom="0.48486096"
     inkscape:cx="152.62107"
     inkscape:cy="530.04886"
     inkscape:window-width="1920"
     inkscape:window-height="1027"
     inkscape:window-x="0"
     inkscape:window-y="25"
     inkscape:window-maximized="0"
     inkscape:current-layer="g14"
     inkscape:export-bgcolor="#00000000">
    <inkscape:grid
       id="grid18"
       units="mm"
       originx="0"
       originy="0"
       spacingx="0.99999999"
       spacingy="0.99999999"
       empcolor="#0099e5"
       empopacity="0.30196078"
       color="#0099e5"
       opacity="0.14901961"
       empspacing="5"
       enabled="true"
       visible="true" />
  </sodipodi:namedview>
  <defs
     id="defs1">
    <inkscape:path-effect
       effect="fillet_chamfer"
       id="path-effect165"
       is_visible="true"
       lpeversion="1"
       nodesatellites_param="F,0,0,1,0,0,0,1 @ F,0,0,1,0,0,0,1 @ F,0,0,1,0,0,0,1 @ F,0,0,1,0,0,0,1 @ F,0,0,1,0,0,0,1 @ F,0,0,1,0,0,0,1 @ F,0,0,1,0,4.892773,0,1 @ F,0,0,1,0,5.3356697,0,1 @ F,0,0,1,0,0,0,1 @ F,0,0,1,0,0,0,1 @ F,0,0,1,0,0,0,1 @ F,0,0,1,0,0,0,1 @ F,0,0,1,0,0,0,1 @ F,0,0,1,0,0,0,1 @ F,0,0,1,0,3.8793583,0,1 @ F,0,0,1,0,3.9394846,0,1 @ F,0,0,1,0,0,0,1 @ F,0,0,1,0,0,0,1 @ F,0,0,1,0,0,0,1 @ F,0,0,1,0,0,0,1 @ F,0,0,1,0,0,0,1 @ F,0,0,1,0,0,0,1 @ F,0,0,1,0,0,0,1 @ F,0,0,1,0,0,0,1 @ F,0,0,1,0,0,0,1 @ F,0,0,1,0,3.5340493,0,1 @ F,0,0,1,0,2.8170679,0,1"
       radius="0"
       unit="px"
       method="auto"
       mode="F"
       chamfer_steps="1"
       flexible="false"
       use_knot_distance="true"
       apply_no_radius="true"
       apply_with_radius="true"
       only_selected="false"
       hide_knots="false" />
    <linearGradient
       id="linearGradient162"
       inkscape:collect="always">
      <stop
         style="stop-color:#2a4786;stop-opacity:1;"
         offset="0"
         id="stop159" />
      <stop
         style="stop-color:#4081bc;stop-opacity:1;"
         offset="0.25242719"
         id="stop163" />
      <stop
         style="stop-color:#3b7cbc;stop-opacity:1;"
         offset="0.49434522"
         id="stop160" />
      <stop
         style="stop-color:#3a92bc;stop-opacity:1;"
         offset="0.49434522"
         id="stop161" />
      <stop
         style="stop-color:#428dc5;stop-opacity:1;"
         offset="0.77346277"
         id="stop164" />
      <stop
         style="stop-color:#49a4cd;stop-opacity:1;"
         offset="1"
         id="stop162" />
    </linearGradient>
    <inkscape:path-effect
       effect="roughen"
       id="path-effect83"
       is_visible="true"
       lpeversion="1.2"
       global_randomize="1;1"
       displace_x="0.156411;1"
       displace_y="0.156411;1"
       method="size"
       max_segment_size="0.469234"
       segments="2"
       handles="along"
       shift_nodes="true"
       fixed_displacement="false"
       spray_tool_friendly="false" />
    <inkscape:path-effect
       effect="simplify"
       id="path-effect82"
       is_visible="true"
       lpeversion="1.3"
       threshold="5"
       steps="4.9442724"
       smooth_angles="360"
       helper_size="10"
       simplify_individual_paths="false"
       simplify_just_coalesce="false" />
    <linearGradient
       id="linearGradient80"
       inkscape:collect="always">
      <stop
         style="stop-color:#ffd43b;stop-opacity:1;"
         offset="0"
         id="stop79" />
      <stop
         style="stop-color:#ff3b5e;stop-opacity:0.57428569;"
         offset="1"
         id="stop80" />
    </linearGradient>
    <inkscape:path-effect
       effect="fillet_chamfer"
       id="path-effect78"
       is_visible="true"
       lpeversion="1"
       nodesatellites_param="F,0,0,1,0,0,0,1 @ F,0,0,1,0,0,0,1 @ F,0,0,1,0,0,0,1 @ F,0,0,1,0,0,0,1 @ F,0,0,1,0,0,0,1 @ F,0,0,1,0,0,0,1 @ F,0,0,1,0,4.892773,0,1 @ F,0,0,1,0,5.3356697,0,1 @ F,0,0,1,0,0,0,1 @ F,0,0,1,0,0,0,1 @ F,0,0,1,0,0,0,1 @ F,0,0,1,0,0,0,1 @ F,0,0,1,0,0,0,1 @ F,0,0,1,0,0,0,1 @ F,0,0,1,0,3.8793583,0,1 @ F,0,0,1,0,3.9394846,0,1 @ F,0,0,1,0,0,0,1 @ F,0,0,1,0,0,0,1 @ F,0,0,1,0,0,0,1 @ F,0,0,1,0,0,0,1 @ F,0,0,1,0,0,0,1 @ F,0,0,1,0,0,0,1 @ F,0,0,1,0,0,0,1 @ F,0,0,1,0,0,0,1 @ F,0,0,1,0,0,0,1 @ F,0,0,1,0,3.5340493,0,1 @ F,0,0,1,0,2.8170679,0,1"
       radius="0"
       unit="px"
       method="auto"
       mode="F"
       chamfer_steps="1"
       flexible="false"
       use_knot_distance="true"
       apply_no_radius="true"
       apply_with_radius="true"
       only_selected="false"
       hide_knots="false" />
    <inkscape:path-effect
       effect="perspective-envelope"
       up_left_point="32.02,56.119562"
       up_right_point="104.01587,56.119562"
       down_left_point="31.922122,263.34835"
       down_right_point="104.01587,263.34835"
       id="path-effect75"
       is_visible="true"
       lpeversion="1"
       deform_type="perspective"
       horizontal_mirror="false"
       vertical_mirror="false"
       overflow_perspective="false" />
    <linearGradient
       id="linearGradient69"
       inkscape:collect="always">
      <stop
         style="stop-color:#ffd43b;stop-opacity:1;"
         offset="0"
         id="stop69" />
      <stop
         style="stop-color:#75662e;stop-opacity:1;"
         offset="1"
         id="stop70" />
    </linearGradient>
    <inkscape:path-effect
       effect="fillet_chamfer"
       id="path-effect20"
       is_visible="true"
       lpeversion="1"
       nodesatellites_param="F,0,0,1,0,0,0,1 @ F,0,0,1,0,0,0,1 @ F,0,0,1,0,0,0,1 @ F,0,0,1,0,0,0,1 @ F,0,0,1,0,0,0,1 @ F,0,0,1,0,0,0,1 @ F,0,0,1,0,4.892773,0,1 @ F,0,0,1,0,5.3356697,0,1 @ F,0,0,1,0,0,0,1 @ F,0,0,1,0,0,0,1 @ F,0,0,1,0,0,0,1 @ F,0,0,1,0,0,0,1 @ F,0,0,1,0,0,0,1 @ F,0,0,1,0,0,0,1 @ F,0,0,1,0,3.8793583,0,1 @ F,0,0,1,0,3.9394846,0,1 @ F,0,0,1,0,0,0,1 @ F,0,0,1,0,0,0,1 @ F,0,0,1,0,0,0,1 @ F,0,0,1,0,0,0,1 @ F,0,0,1,0,0,0,1 @ F,0,0,1,0,0,0,1 @ F,0,0,1,0,0,0,1 @ F,0,0,1,0,0,0,1 @ F,0,0,1,0,0,0,1 @ F,0,0,1,0,3.5340493,0,1 @ F,0,0,1,0,2.8170679,0,1"
       radius="0"
       unit="px"
       method="auto"
       mode="F"
       chamfer_steps="1"
       flexible="false"
       use_knot_distance="true"
       apply_no_radius="true"
       apply_with_radius="true"
       only_selected="false"
       hide_knots="false" />
    <inkscape:path-effect
       effect="fillet_chamfer"
       id="path-effect16"
       is_visible="true"
       lpeversion="1"
       nodesatellites_param="F,0,0,1,0,0,0,1 @ F,0,0,1,0,0,0,1 @ F,0,0,1,0,0,0,1 @ F,0,0,1,0,0,0,1 @ F,0,0,1,0,0,0,1 @ F,0,0,1,0,0,0,1 @ F,0,0,1,0,4.892773,0,1 @ F,0,0,1,0,5.3356697,0,1 @ F,0,0,1,0,0,0,1 @ F,0,0,1,0,0,0,1 @ F,0,0,1,0,0,0,1 @ F,0,0,1,0,0,0,1 @ F,0,0,1,0,0,0,1 @ F,0,0,1,0,0,0,1 @ F,0,0,1,0,3.8793583,0,1 @ F,0,0,1,0,3.9394846,0,1 @ F,0,0,1,0,0,0,1 @ F,0,0,1,0,0,0,1 @ F,0,0,1,0,0,0,1 @ F,0,0,1,0,0,0,1 @ F,0,0,1,0,0,0,1 @ F,0,0,1,0,0,0,1 @ F,0,0,1,0,0,0,1 @ F,0,0,1,0,0,0,1 @ F,0,0,1,0,0,0,1 @ F,0,0,1,0,3.5340493,0,1 @ F,0,0,1,0,2.8170679,0,1"
       radius="0"
       unit="px"
       method="auto"
       mode="F"
       chamfer_steps="1"
       flexible="false"
       use_knot_distance="true"
       apply_no_radius="true"
       apply_with_radius="true"
       only_selected="false"
       hide_knots="false" />
    <inkscape:path-effect
       effect="fillet_chamfer"
       id="path-effect15"
       is_visible="true"
       lpeversion="1"
       nodesatellites_param="F,0,0,1,0,0,0,1 @ F,0,0,1,0,0,0,1 @ F,0,0,1,0,0,0,1 @ F,0,0,1,0,0,0,1 @ F,0,0,1,0,0,0,1 @ F,0,0,1,0,0,0,1 @ F,0,0,1,0,0,0,1 @ F,0,0,1,0,0,0,1 @ F,0,0,1,0,0,0,1 @ F,0,0,1,0,0,0,1 @ F,0,0,1,0,0,0,1 @ F,0,0,1,0,0,0,1 @ F,0,0,1,0,0,0,1 @ F,0,0,1,0,0,0,1 @ F,0,0,1,0,0,0,1 @ F,0,0,1,0,0,0,1 @ F,0,0,1,0,0,0,1 @ F,0,0,1,0,0,0,1 @ F,0,0,1,0,0,0,1 @ F,0,0,1,0,0,0,1 @ F,0,0,1,0,0,0,1 @ F,0,0,1,0,0,0,1 @ F,0,0,1,0,0,0,1 @ F,0,0,1,0,0,0,1 @ F,0,0,1,0,0,0,1 @ F,0,0,1,0,0,0,1 @ F,0,0,1,0,0,0,1"
       radius="0"
       unit="px"
       method="auto"
       mode="F"
       chamfer_steps="1"
       flexible="false"
       use_knot_distance="true"
       apply_no_radius="true"
       apply_with_radius="true"
       only_selected="false"
       hide_knots="false" />
    <inkscape:path-effect
       effect="spiro"
       id="path-effect10"
       is_visible="true"
       lpeversion="1" />
    <inkscape:path-effect
       effect="spiro"
       id="path-effect8"
       is_visible="true"
       lpeversion="1" />
    <inkscape:path-effect
       effect="spiro"
       id="path-effect6"
       is_visible="true"
       lpeversion="1" />
    <inkscape:path-effect
       effect="spiro"
       id="path-effect4"
       is_visible="true"
       lpeversion="1" />
    <inkscape:path-effect
       effect="spiro"
       id="path-effect3"
       is_visible="true"
       lpeversion="1" />
    <inkscape:path-effect
       effect="spiro"
       id="path-effect2"
       is_visible="true"
       lpeversion="1" />
    <rect
       x="188.23168"
       y="416.32419"
       width="378.67785"
       height="336.60253"
       id="rect1" />
    <linearGradient
       inkscape:collect="always"
       xlink:href="#linearGradient162"
       id="linearGradient66"
       x1="29.772474"
       y1="266.49976"
       x2="99.358307"
       y2="55.476109"
       gradientUnits="userSpaceOnUse" />
    <linearGradient
       inkscape:collect="always"
       xlink:href="#linearGradient69"
       id="linearGradient70"
       x1="130.66231"
       y1="128.10923"
       x2="196.85723"
       y2="128.10923"
       gradientUnits="userSpaceOnUse" />
    <linearGradient
       inkscape:collect="always"
       xlink:href="#linearGradient80"
       id="linearGradient79"
       gradientUnits="userSpaceOnUse"
       x1="157.56436"
       y1="93.927765"
       x2="201.60464"
       y2="167.0381"
       gradientTransform="translate(5.3804137,-0.63298985)" />
    <filter
       style="color-interpolation-filters:sRGB;"
       inkscape:label="Blend"
       id="filter104"
       x="0"
       y="0"
       width="1"
       height="1">
      <feBlend
         in2="BackgroundImage"
         mode="multiply"
         result="fbSourceGraphic"
         id="feBlend104" />
      <feColorMatrix
         result="fbSourceGraphicAlpha"
         in="fbSourceGraphic"
         values="0 0 0 -1 0 0 0 0 -1 0 0 0 0 -1 0 0 0 0 1 0"
         id="feColorMatrix104" />
      <feBlend
         id="feBlend105"
         in2="BackgroundImage"
         mode="screen"
         result="blend"
         in="fbSourceGraphic" />
    </filter>
    <linearGradient
       inkscape:collect="always"
       xlink:href="#linearGradient162"
       id="linearGradient165"
       gradientUnits="userSpaceOnUse"
       x1="29.772474"
       y1="266.49976"
       x2="99.358307"
       y2="55.476109" />
  </defs>
  <g
     inkscape:label="Left Bracket"
     inkscape:groupmode="layer"
     id="layer1"
     style="display:none"
     sodipodi:insensitive="true">
    <path
       style="fill:none;stroke:#000000;stroke-width:16.365;stroke-dasharray:none;stroke-opacity:1"
       d="m 32.13573,159.88518 c 6.240216,0.40233 12.592491,-1.15182 17.942081,-4.38973 5.349589,-3.23791 9.672447,-8.14502 12.209965,-13.86019 4.058301,-9.14038 3.446419,-19.58201 2.762994,-29.55945 -0.683425,-9.97744 -1.284672,-20.421924 2.79133,-29.554426 2.87238,-6.435721 8.02917,-11.823795 14.332761,-14.975591 6.303591,-3.151796 13.708124,-4.044384 20.580129,-2.480855"
       id="path3"
       inkscape:path-effect="#path-effect4"
       inkscape:original-d="m 32.13573,159.88518 c 10.050682,-6.61229 19.704627,-12.4311 30.152046,-18.24992 10.44742,-5.81881 3.702884,-39.5415 5.554324,-59.113876 1.85144,-19.57238 23.539754,-11.505385 34.91289,-17.456446"
       transform="translate(5.1575866,-28.961833)" />
    <path
       style="fill:none;stroke:#000000;stroke-width:16.365;stroke-dasharray:none;stroke-opacity:1"
       d="m 32.13573,159.88518 c 6.240216,0.40233 12.592491,-1.15182 17.942081,-4.38973 5.349589,-3.23791 9.672447,-8.14502 12.209965,-13.86019 4.058301,-9.14038 3.446419,-19.58201 2.762994,-29.55945 -0.683425,-9.97744 -1.284672,-20.421924 2.79133,-29.554426 2.87238,-6.435721 8.02917,-11.823795 14.332761,-14.975591 6.303591,-3.151796 13.708124,-4.044384 20.580129,-2.480855"
       id="path4"
       inkscape:path-effect="#path-effect6"
       inkscape:original-d="m 32.13573,159.88518 c 10.050682,-6.61229 19.704627,-12.4311 30.152046,-18.24992 10.44742,-5.81881 3.702884,-39.5415 5.554324,-59.113876 1.85144,-19.57238 23.539754,-11.505385 34.91289,-17.456446"
       transform="matrix(1,0,0,-1,5.1575866,290.50579)"
       inkscape:transform-center-x="-33.078264"
       inkscape:transform-center-y="47.60406" />
  </g>
  <g
     inkscape:label="Left Bracket copy"
     inkscape:groupmode="layer"
     id="g7"
     style="display:inline">
    <g
       id="g14">
      <path
         id="path15"
         style="baseline-shift:baseline;display:inline;overflow:visible;opacity:1;vector-effect:none;fill:url(#linearGradient66);fill-opacity:1;stroke:none;stroke-opacity:1;enable-background:accumulate;stop-color:#000000;stop-opacity:1"
         d="m 97.931728,56.169991 c -6.675828,-0.339791 -13.383329,1.04033 -19.415869,4.0566 -8.043387,4.021695 -14.481537,10.747065 -18.146696,18.95905 -5.144393,11.526288 -4.170146,23.409689 -3.482475,33.449119 0.679582,9.92133 0.918733,18.93033 -2.077909,25.67957 -1.843805,4.15274 -5.079792,7.82909 -8.966895,10.18181 -3.389892,2.27468 -6.205998,2.67045 -9.342537,2.78052 -2.700223,0.0948 -4.578015,2.31477 -4.488342,5.01427 0.07129,2.14624 0.0201,4.28837 -0.08254,6.43435 -0.140767,2.94324 2.076312,5.18998 5.014095,5.40869 2.951614,0.21974 5.53675,0.89638 8.89932,2.8378 3.887104,2.35272 7.123091,6.02855 8.966895,10.18129 2.996643,6.74924 2.757491,15.75824 2.077909,25.67957 -0.687671,10.03943 -1.661918,21.92335 3.482475,33.44964 3.665159,8.21198 10.103309,14.93735 18.146696,18.95905 6.03254,3.01627 12.740041,4.39639 19.415869,4.0566 0.941033,-0.0479 1.881283,-0.12994 2.818912,-0.2464 2.12528,-0.26398 3.4341,-2.36339 2.95876,-4.45251 l -1.89608,-8.33318 c -0.48271,-2.12149 -2.60324,-3.41757 -4.773986,-3.32384 -3.852433,0.16634 -7.807006,-0.64029 -11.205575,-2.33957 -4.563794,-2.2819 -8.439654,-6.33057 -10.519255,-10.99003 -3.007612,-6.73871 -2.778793,-15.74706 -2.099613,-25.66252 0.687268,-10.03354 1.670558,-21.90571 -3.449402,-33.43723 -2.573253,-5.79565 -6.52663,-10.87025 -11.470618,-14.77894 4.943988,-3.9087 8.897366,-8.98278 11.470618,-14.77843 5.11996,-11.53152 4.13667,-23.40421 3.449402,-33.43775 -0.67918,-9.91546 -0.907999,-18.923286 2.099613,-25.662002 2.079601,-4.659457 5.95546,-8.708129 10.519255,-10.990027 3.51774,-1.75887 7.631162,-2.561696 11.610429,-2.318928 1.946043,0.118724 3.846152,-1.046515 4.279182,-2.949674 l 2.22171,-9.76433 c 0.34518,-1.517049 -0.6044,-3.037412 -2.14222,-3.271148 -1.28571,-0.195418 -2.577679,-0.325585 -3.871132,-0.39142 z"
         transform="translate(-9.5760187,-28.961833)"
         sodipodi:nodetypes="ssssssccssssssccsssscssssccs"
         inkscape:original-d="m 97.931728,56.169991 c -6.675828,-0.339791 -13.383329,1.04033 -19.415869,4.0566 -8.043387,4.021695 -14.481537,10.747065 -18.146696,18.95905 -5.144393,11.526288 -4.170146,23.409689 -3.482475,33.449119 0.679582,9.92133 0.918733,18.93033 -2.077909,25.67957 -1.843805,4.15274 -5.079792,7.82909 -8.966895,10.18181 -5.033491,3.37756 -8.801905,2.61253 -14.232723,2.92075 0.766142,5.5665 0.359127,11.06559 0,16.63413 5.699783,-0.0592 9.038833,-0.078 14.232723,2.92075 3.887104,2.35272 7.123091,6.02855 8.966895,10.18129 2.996643,6.74924 2.757491,15.75824 2.077909,25.67957 -0.687671,10.03943 -1.661918,21.92335 3.482475,33.44964 3.665159,8.21198 10.103309,14.93735 18.146696,18.95905 6.03254,3.01627 12.740041,4.39639 19.415869,4.0566 2.225282,-0.11327 4.446182,-0.41746 6.638352,-0.91623 l -3.63078,-15.95716 c -4.975326,1.13199 -10.541746,0.45978 -15.105541,-1.82211 -4.563794,-2.2819 -8.439654,-6.33057 -10.519255,-10.99003 -3.007612,-6.73871 -2.778793,-15.74706 -2.099613,-25.66252 0.687268,-10.03354 1.670558,-21.90571 -3.449402,-33.43723 -2.573253,-5.79565 -6.52663,-10.87025 -11.470618,-14.77894 4.943988,-3.9087 8.897366,-8.98278 11.470618,-14.77843 5.11996,-11.53152 4.13667,-23.40421 3.449402,-33.43775 -0.67918,-9.91546 -0.907999,-18.923286 2.099613,-25.662002 2.079601,-4.659457 5.95546,-8.708129 10.519255,-10.990027 4.563795,-2.281897 10.130216,-2.954622 15.105541,-1.822628 l 3.63078,-15.957165 c -2.19217,-0.498766 -4.41307,-0.802444 -6.638352,-0.915707 z"
         inkscape:path-effect="#path-effect16" />
      <g
         id="g64"
         transform="matrix(1.1320068,0,0,1.1320068,-36.797437,3.764912)"
         style="fill:url(#linearGradient70);fill-opacity:1;filter:url(#filter104)">
        <path
           style="display:inline;fill:#646464;fill-opacity:1;stroke:none;stroke-width:16.765;stroke-linecap:round;stroke-linejoin:miter;stroke-miterlimit:4.7;stroke-dasharray:none;stroke-opacity:1;paint-order:normal"
           id="path28"
           inkscape:path-effect="#path-effect83"
           sodipodi:type="arc"
           sodipodi:cx="175.75706"
           sodipodi:cy="102.03988"
           sodipodi:rx="11.730851"
           sodipodi:ry="11.730851"
           d="m 187.53863,102.05149 c 0,0.16197 -0.0835,0.269 -0.09,0.42937 -0.0365,0.1312 0.0728,0.36412 0.0583,0.53592 0.0775,0.17361 -0.0511,0.27787 -0.0704,0.43217 -0.0426,0.13387 -0.065,0.31048 -0.0929,0.47558 -0.0468,0.13806 -0.0594,0.31931 -0.0931,0.47822 -0.0341,0.15106 -0.0436,0.31834 -0.082,0.46908 -0.0134,0.16172 -0.10696,0.24879 -0.15026,0.39469 -0.076,0.11273 -0.0516,0.33522 -0.10525,0.49163 -0.004,0.163 -0.10175,0.28842 -0.15689,0.43062 -0.055,0.14296 -0.0887,0.29777 -0.14945,0.43784 -0.0358,0.15307 -0.1202,0.27874 -0.18592,0.4154 -0.0627,0.13868 -0.13055,0.27396 -0.20185,0.40847 -0.0671,0.13524 -0.17843,0.17622 -0.25496,0.30789 -0.11912,0.0564 -0.20274,0.23993 -0.29504,0.38436 -0.11344,0.0801 -0.13295,0.27004 -0.22418,0.40149 -0.0476,0.1311 -0.17894,0.2587 -0.27336,0.38428 -0.0872,0.12179 -0.17806,0.23969 -0.27212,0.35584 -0.0904,0.11869 -0.18251,0.23573 -0.28077,0.3485 -0.0907,0.118 -0.0654,0.23117 -0.16791,0.34051 0.011,0.1377 -0.26426,0.15249 -0.39311,0.27773 -0.13778,0.0121 -0.23525,0.23963 -0.36222,0.35348 -0.10143,0.10589 -0.22175,0.20355 -0.3379,0.30046 -0.11028,0.10004 -0.1523,0.22209 -0.27089,0.31411 -0.0506,0.13308 -0.26384,0.18765 -0.39853,0.28338 -0.12546,0.0766 -0.24958,0.16725 -0.37714,0.25089 -0.12673,0.0765 -0.26462,0.14159 -0.39471,0.22023 -0.13914,0.056 -0.27674,0.1315 -0.40931,0.20548 -0.14664,0.0499 -0.2687,0.0885 -0.40169,0.15719 -0.14578,0.0169 -0.28833,0.13136 -0.43002,0.1992 -0.14367,0.0542 -0.27337,0.12404 -0.41025,0.18479 -0.14053,0.0579 -0.29254,0.0432 -0.43226,0.10017 -0.16065,-0.0181 -0.20423,0.14361 -0.35046,0.19947 -0.0769,0.0891 -0.30804,0.13847 -0.47554,0.19469 -0.12864,0.0668 -0.26205,0.12426 -0.41445,0.16824 -0.11904,0.0724 -0.23382,0.095 -0.39502,0.13212 -0.0917,0.0487 -0.38342,0.0251 -0.56672,0.0552 -0.17781,-0.0255 -0.2674,0.0624 -0.41561,0.0847 -0.1349,0.039 -0.35622,-0.0652 -0.52271,-0.048 -0.18645,-0.0943 -0.30628,0.0643 -0.45735,0.10024 -0.15874,0.0378 -0.26273,0.0654 -0.41767,0.0654 -0.16197,0 -0.34487,-0.0293 -0.50531,-0.0358 -0.17418,-0.0322 -0.2636,0.0131 -0.41461,0.001 -0.13243,0.0147 -0.36056,-0.0485 -0.53163,-0.0696 -0.16628,-0.036 -0.30691,-0.0461 -0.45617,-0.0704 -0.15837,-0.0308 -0.33891,-0.14748 -0.4896,-0.17811 -0.16917,-0.12223 -0.29086,-0.0974 -0.42378,-0.12923 -0.16189,-0.0738 -0.30597,-0.14729 -0.44342,-0.18535 -0.1596,-0.11464 -0.27302,-0.13392 -0.40261,-0.17449 -0.14635,-0.10139 -0.276,-0.20141 -0.40924,-0.24818 -0.13384,-0.15921 -0.25651,-0.14453 -0.38207,-0.19311 -0.13444,-0.10419 -0.26034,-0.10168 -0.39017,-0.1569 -0.1347,-0.0558 -0.15064,-0.0943 -0.28551,-0.15736 -0.0465,-0.0543 -0.28752,-0.15318 -0.45309,-0.23972 -0.0944,-0.0663 -0.30142,-0.29165 -0.44273,-0.3726 -0.11815,-0.19756 -0.21146,-0.12605 -0.31401,-0.18854 -0.12677,-0.0802 -0.21755,-0.13043 -0.33793,-0.20933 -0.10401,-0.0646 -0.26614,-0.17982 -0.39426,-0.27068 -0.12192,-0.0882 -0.16985,-0.1497 -0.28418,-0.2368 -0.0684,-0.0817 -0.26113,-0.20329 -0.38899,-0.30891 -0.11186,-0.0928 -0.15635,-0.17296 -0.26577,-0.27005 -0.0561,-0.0944 -0.24843,-0.22578 -0.36796,-0.34059 -0.10713,-0.10369 -0.22973,-0.23955 -0.33055,-0.34343 -0.11508,-0.13241 -0.14601,-0.17439 -0.23514,-0.27239 -0.0697,-0.10008 -0.20039,-0.22723 -0.30261,-0.34882 -0.0865,-0.10623 -0.1696,-0.2152 -0.26275,-0.33498 -0.0728,-0.10485 -0.15174,-0.22108 -0.24314,-0.34874 -0.0561,-0.10355 -0.10521,-0.23837 -0.19455,-0.37458 -0.0117,-0.11402 -0.20991,-0.35998 -0.29796,-0.50633 -0.0901,-0.18022 -0.11659,-0.20411 -0.17704,-0.31131 -0.0661,-0.12515 -0.16848,-0.30553 -0.23857,-0.44113 -0.0833,-0.159 -0.0361,-0.22832 -0.0939,-0.35029 0.0151,-0.13677 -0.0561,-0.26742 -0.1223,-0.4203 0.0159,-0.12297 -0.13455,-0.36354 -0.19915,-0.52463 -0.0509,-0.17513 -0.10942,-0.26575 -0.1572,-0.39404 -0.0605,-0.14968 -0.0514,-0.27299 -0.0977,-0.41286 -7.3e-4,-0.14674 -0.10458,-0.31454 -0.15044,-0.46841 -0.0487,-0.15487 -0.0865,-0.39555 -0.12256,-0.54138 -0.0341,-0.23065 -0.0529,-0.23681 -0.0767,-0.35111 -0.0275,-0.15335 -0.0317,-0.2955 -0.0502,-0.45646 -0.0174,-0.15099 -0.0651,-0.35804 -0.0651,-0.53112 0,-0.16197 -0.0121,-0.3506 -0.006,-0.51093 -0.009,-0.17902 0.10117,-0.26798 0.11305,-0.41794 0.0992,-0.13242 0.0192,-0.35308 0.0392,-0.51782 0.008,-0.17012 0.0243,-0.31711 0.048,-0.46491 0.009,-0.167664 0.0498,-0.297963 0.0792,-0.44491 0.0296,-0.15302 0.0679,-0.302683 0.10413,-0.452404 0.0403,-0.149597 0.10204,-0.294242 0.14399,-0.441639 0.0683,-0.142185 0.055,-0.362861 0.1021,-0.506747 0.0106,-0.198569 0.0835,-0.29494 0.12935,-0.420031 0.0464,-0.17315 0.1877,-0.231043 0.24046,-0.360131 0.1456,-0.107611 0.11144,-0.37536 0.17301,-0.510961 0.0461,-0.210685 0.10094,-0.235636 0.15456,-0.344399 0.0636,-0.146874 0.13216,-0.262792 0.20195,-0.391508 0.0717,-0.133278 0.23358,-0.228565 0.31053,-0.35784 0.16126,-0.08932 0.13802,-0.263753 0.21651,-0.385147 0.0676,-0.14003 0.22688,-0.212248 0.3115,-0.332721 0.14814,-0.08534 0.16125,-0.247024 0.24923,-0.362982 0.081,-0.12788 0.16873,-0.355458 0.26252,-0.469771 0.0646,-0.215177 0.12618,-0.232308 0.20623,-0.323481 0.0669,-0.155532 0.29341,-0.206956 0.39417,-0.312419 0.18813,-0.08339 0.24253,-0.163252 0.33549,-0.253878 0.16174,-0.07479 0.21798,-0.183327 0.32188,-0.277381 0.12502,-0.08862 0.2507,-0.186177 0.36432,-0.281198 0.13962,-0.08186 0.23989,-0.16991 0.35408,-0.258278 0.13341,-0.07707 0.23969,-0.176192 0.36016,-0.262175 0.12527,-0.0839 0.32429,-0.152349 0.44936,-0.234301 0.18894,-0.05293 0.29646,-0.121504 0.40842,-0.18978 0.18838,-0.04804 0.31153,-0.134645 0.4259,-0.199714 0.19459,-0.06112 0.33839,-0.106812 0.44879,-0.165604 0.22348,-0.03956 0.24069,-0.08648 0.34527,-0.139094 0.16133,-0.04184 0.27878,-0.114275 0.40868,-0.17492 0.15286,-0.04823 0.26173,-0.129401 0.39611,-0.186803 0.13424,-0.06673 0.27268,-0.141246 0.41499,-0.194932 0.13369,-0.07807 0.32311,-0.07689 0.46914,-0.122991 0.17456,-0.01671 0.28746,-0.07644 0.42796,-0.11429 0.15679,-0.03138 0.27075,-0.143467 0.4208,-0.176556 0.13112,-0.101581 0.31015,-0.06687 0.47329,-0.08606 0.15211,-0.02547 0.31348,-0.03178 0.47742,-0.03915 0.15494,-0.0089 0.2984,-0.04978 0.46279,-0.05072 0.15763,-8.99e-4 0.33703,0.0399 0.50171,0.0399 0.16197,0 0.33326,0.01076 0.49363,0.01727 0.16689,0.01384 0.29896,1.93e-4 0.4541,0.01264 0.14996,-0.0025 0.35337,0.04964 0.51521,0.06945 0.17376,0.03799 0.32124,0.06118 0.46655,0.08456 0.17224,0.04567 0.33714,0.08086 0.47956,0.109257 0.18394,0.05862 0.26735,0.05516 0.40001,0.08646 0.15004,0.03485 0.4127,0.08804 0.56099,0.129287 0.22481,0.04531 0.24118,0.07707 0.35201,0.111519 0.1573,0.0565 0.2678,0.07599 0.40531,0.124553 0.13799,0.03902 0.29383,0.10499 0.43984,0.163452 0.14005,0.05398 0.28379,0.116192 0.42368,0.178898 0.13864,0.06138 0.28809,0.137475 0.42424,0.205234 0.14275,0.07546 0.25809,0.127462 0.38678,0.197893 0.13102,0.06772 0.26434,0.131907 0.39583,0.211039 0.12972,0.06191 0.24711,0.11075 0.37707,0.196563 0.12078,0.03906 0.28062,0.188796 0.41551,0.286952 0.12565,0.09009 0.2369,0.174832 0.3547,0.26813 0.11612,0.09089 0.22634,0.161776 0.3428,0.262148 0.10986,0.07402 0.2347,0.205223 0.35271,0.316295 0.10502,0.09776 0.31094,0.228304 0.41988,0.339769 0.17661,0.104775 0.17414,0.167812 0.26087,0.263145 0.10192,0.09869 0.25597,0.267849 0.35714,0.389371 0.13201,0.135166 0.14112,0.14662 0.22321,0.253111 0.0779,0.07704 0.30871,0.31502 0.40911,0.459407 0.16955,0.137471 0.14478,0.208399 0.21241,0.313795 0.0863,0.130144 0.16229,0.259166 0.23909,0.391548 0.0773,0.133017 0.15787,0.269391 0.2293,0.406107 0.0769,0.136472 0.13787,0.271023 0.20278,0.409567 0.0649,0.138568 0.14279,0.294158 0.20246,0.437103 0.0719,0.149811 0.11387,0.277145 0.16548,0.41653 0.0557,0.146021 0.10066,0.145073 0.1481,0.291461 0.0584,0.04534 0.1189,0.384361 0.17081,0.582827 0.0399,0.149374 0.0504,0.263599 0.084,0.416306 0.0111,0.126936 0.0833,0.340263 0.1143,0.508159 0.0413,0.159834 0.0972,0.320935 0.11999,0.471242 0.067,0.169939 0.0312,0.282266 0.0466,0.428605 0.007,0.15021 0.0225,0.29368 0.0337,0.45505 0.003,0.13729 0.013,0.28671 0.0207,0.45625 -3.6e-4,0.1202 -0.003,0.32316 0.003,0.50163 0.005,0.16735 0.0786,0.36912 0.0786,0.51988 z" />
        <path
           id="path26"
           style="baseline-shift:baseline;display:inline;overflow:visible;opacity:1;vector-effect:none;fill:url(#linearGradient79);fill-opacity:1;stroke-linecap:round;stroke-miterlimit:4.7;enable-background:accumulate;stop-color:#000000;stop-opacity:1"
           d="m 169.13992,60.862998 c -14.11615,0 -32.81223,9.807858 -33.0972,35.052641 v 89.791421 c 4e-5,4.62947 3.75296,8.38239 8.38243,8.38243 4.62887,-8.9e-4 8.38085,-3.75356 8.38089,-8.38243 v -63.00184 c 4.82897,2.76623 10.40807,4.35115 16.33388,4.35115 18.17995,0 33.09772,-14.91776 33.09772,-33.097718 0,-18.179957 -14.91777,-33.095654 -33.09772,-33.095654 z m 0,16.763835 c 9.11947,0 16.33234,7.21234 16.33234,16.331819 0,9.119488 -7.21287,16.333888 -16.33234,16.333888 -9.11948,0 -16.33388,-7.2144 -16.33388,-16.333888 0,-9.119479 7.2144,-16.331819 16.33388,-16.331819 z"
           sodipodi:nodetypes="scccccssssssss" />
      </g>
      <path
         id="path164"
         style="baseline-shift:baseline;display:inline;overflow:visible;opacity:1;vector-effect:none;fill:url(#linearGradient165);fill-opacity:1;stroke:none;stroke-opacity:1;enable-background:accumulate;stop-color:#000000;stop-opacity:1"
         d="m 97.931728,56.169991 c -6.675828,-0.339791 -13.383329,1.04033 -19.415869,4.0566 -8.043387,4.021695 -14.481537,10.747065 -18.146696,18.95905 -5.144393,11.526288 -4.170146,23.409689 -3.482475,33.449119 0.679582,9.92133 0.918733,18.93033 -2.077909,25.67957 -1.843805,4.15274 -5.079792,7.82909 -8.966895,10.18181 -3.389892,2.27468 -6.205998,2.67045 -9.342537,2.78052 -2.700223,0.0948 -4.578015,2.31477 -4.488342,5.01427 0.07129,2.14624 0.0201,4.28837 -0.08254,6.43435 -0.140767,2.94324 2.076312,5.18998 5.014095,5.40869 2.951614,0.21974 5.53675,0.89638 8.89932,2.8378 3.887104,2.35272 7.123091,6.02855 8.966895,10.18129 2.996643,6.74924 2.757491,15.75824 2.077909,25.67957 -0.687671,10.03943 -1.661918,21.92335 3.482475,33.44964 3.665159,8.21198 10.103309,14.93735 18.146696,18.95905 6.03254,3.01627 12.740041,4.39639 19.415869,4.0566 0.941033,-0.0479 1.881283,-0.12994 2.818912,-0.2464 2.12528,-0.26398 3.4341,-2.36339 2.95876,-4.45251 l -1.89608,-8.33318 c -0.48271,-2.12149 -2.60324,-3.41757 -4.773986,-3.32384 -3.852433,0.16634 -7.807006,-0.64029 -11.205575,-2.33957 -4.563794,-2.2819 -8.439654,-6.33057 -10.519255,-10.99003 -3.007612,-6.73871 -2.778793,-15.74706 -2.099613,-25.66252 0.687268,-10.03354 1.670558,-21.90571 -3.449402,-33.43723 -2.573253,-5.79565 -6.52663,-10.87025 -11.470618,-14.77894 4.943988,-3.9087 8.897366,-8.98278 11.470618,-14.77843 5.11996,-11.53152 4.13667,-23.40421 3.449402,-33.43775 -0.67918,-9.91546 -0.907999,-18.923286 2.099613,-25.662002 2.079601,-4.659457 5.95546,-8.708129 10.519255,-10.990027 3.51774,-1.75887 7.631162,-2.561696 11.610429,-2.318928 1.946043,0.118724 3.846152,-1.046515 4.279182,-2.949674 l 2.22171,-9.76433 c 0.34518,-1.517049 -0.6044,-3.037412 -2.14222,-3.271148 -1.28571,-0.195418 -2.577679,-0.325585 -3.871132,-0.39142 z"
         transform="matrix(-1,0,0,1,302.55189,-9.2123157)"
         sodipodi:nodetypes="ssssssccssssssccsssscssssccs"
         inkscape:original-d="m 97.931728,56.169991 c -6.675828,-0.339791 -13.383329,1.04033 -19.415869,4.0566 -8.043387,4.021695 -14.481537,10.747065 -18.146696,18.95905 -5.144393,11.526288 -4.170146,23.409689 -3.482475,33.449119 0.679582,9.92133 0.918733,18.93033 -2.077909,25.67957 -1.843805,4.15274 -5.079792,7.82909 -8.966895,10.18181 -5.033491,3.37756 -8.801905,2.61253 -14.232723,2.92075 0.766142,5.5665 0.359127,11.06559 0,16.63413 5.699783,-0.0592 9.038833,-0.078 14.232723,2.92075 3.887104,2.35272 7.123091,6.02855 8.966895,10.18129 2.996643,6.74924 2.757491,15.75824 2.077909,25.67957 -0.687671,10.03943 -1.661918,21.92335 3.482475,33.44964 3.665159,8.21198 10.103309,14.93735 18.146696,18.95905 6.03254,3.01627 12.740041,4.39639 19.415869,4.0566 2.225282,-0.11327 4.446182,-0.41746 6.638352,-0.91623 l -3.63078,-15.95716 c -4.975326,1.13199 -10.541746,0.45978 -15.105541,-1.82211 -4.563794,-2.2819 -8.439654,-6.33057 -10.519255,-10.99003 -3.007612,-6.73871 -2.778793,-15.74706 -2.099613,-25.66252 0.687268,-10.03354 1.670558,-21.90571 -3.449402,-33.43723 -2.573253,-5.79565 -6.52663,-10.87025 -11.470618,-14.77894 4.943988,-3.9087 8.897366,-8.98278 11.470618,-14.77843 5.11996,-11.53152 4.13667,-23.40421 3.449402,-33.43775 -0.67918,-9.91546 -0.907999,-18.923286 2.099613,-25.662002 2.079601,-4.659457 5.95546,-8.708129 10.519255,-10.990027 4.563795,-2.281897 10.130216,-2.954622 15.105541,-1.822628 l 3.63078,-15.957165 c -2.19217,-0.498766 -4.41307,-0.802444 -6.638352,-0.915707 z"
         inkscape:path-effect="#path-effect165" />
    </g>
  </g>
</svg>
