<?xml version="1.0" encoding="UTF-8" standalone="no"?>
<svg
   height="32.641422"
   viewBox="0 -960 1303.4323 1305.6569"
   width="32.585808"
   fill="#999999"
   version="1.1"
   id="svg1"
   sodipodi:docname="close_24dp_999999_FILL0_wght700_GRAD200_opsz24.svg"
   inkscape:version="1.4.2 (ebf0e940, 2025-05-08)"
   xmlns:inkscape="http://www.inkscape.org/namespaces/inkscape"
   xmlns:sodipodi="http://sodipodi.sourceforge.net/DTD/sodipodi-0.dtd"
   xmlns="http://www.w3.org/2000/svg"
   xmlns:svg="http://www.w3.org/2000/svg">
  <defs
     id="defs1" />
  <sodipodi:namedview
     id="namedview1"
     pagecolor="#505050"
     bordercolor="#eeeeee"
     borderopacity="1"
     inkscape:showpageshadow="0"
     inkscape:pageopacity="0"
     inkscape:pagecheckerboard="0"
     inkscape:deskcolor="#505050"
     inkscape:zoom="4.3414325"
     inkscape:cx="-8.0618551"
     inkscape:cy="50.789687"
     inkscape:window-width="1712"
     inkscape:window-height="1040"
     inkscape:window-x="0"
     inkscape:window-y="44"
     inkscape:window-maximized="0"
     inkscape:current-layer="svg1">
    <inkscape:page
       x="0"
       y="0"
       width="1303.4323"
       height="1305.6569"
       id="page2"
       margin="0"
       bleed="0" />
  </sodipodi:namedview>
  <path
     d="M 651.71624,-94.752137 255.79305,301.17105 q -44.48575,44.48575 -106.7658,44.48575 -62.280057,0 -104.541517,-44.48575 Q -1.6982079e-5,256.6853 -1.6982079e-5,195.51739 q 0,-61.16791 44.485749982079,-105.653659 L 440.40892,-306.05946 44.485733,-704.20693 Q -1.6982079e-5,-748.69268 -1.6982079e-5,-809.86059 q 0,-61.16791 44.485749982079,-105.65366 Q 86.747193,-960 149.02725,-960 q 62.28005,0 106.7658,44.48575 l 395.92319,395.92319 395.92316,-395.92319 Q 1092.1252,-960 1154.4052,-960 q 62.2801,0 104.5416,44.48575 44.4857,44.48575 44.4857,105.65366 0,61.16791 -44.4857,105.65366 L 863.02358,-306.05946 1258.9468,89.863731 q 44.4857,44.485749 44.4857,105.653659 0,61.16791 -44.4857,105.65366 -42.2615,44.48575 -104.5416,44.48575 -62.28,0 -106.7658,-44.48575 z"
     id="path1"
     style="fill:#333333;fill-opacity:1;stroke-width:2.22429" />
</svg>
