<?xml version="1.0" encoding="UTF-8" standalone="no"?>
<svg
   width="5.2733479"
   height="5.2815514"
   viewBox="0 0 5.2733479 5.2815514"
   fill="none"
   version="1.1"
   id="svg2"
   sodipodi:docname="sort_path.svg"
   inkscape:export-filename="sort_path.svg"
   inkscape:export-xdpi="96"
   inkscape:export-ydpi="96"
   xmlns:inkscape="http://www.inkscape.org/namespaces/inkscape"
   xmlns:sodipodi="http://sodipodi.sourceforge.net/DTD/sodipodi-0.dtd"
   xmlns="http://www.w3.org/2000/svg"
   xmlns:svg="http://www.w3.org/2000/svg">
  <defs
     id="defs2" />
  <sodipodi:namedview
     id="namedview2"
     pagecolor="#505050"
     bordercolor="#eeeeee"
     borderopacity="1"
     inkscape:showpageshadow="0"
     inkscape:pageopacity="0"
     inkscape:pagecheckerboard="0"
     inkscape:deskcolor="#505050">
    <inkscape:page
       x="0"
       y="0"
       width="5.2733479"
       height="5.2815514"
       id="page2"
       margin="0"
       bleed="0" />
  </sodipodi:namedview>
  <g
     id="g2"
     transform="matrix(0.14122868,-0.14054437,0.1405446,0.14122892,-8.6289822,2.6081514)"
     style="fill:#565656;fill-opacity:1;stroke:#565656;stroke-opacity:1">
    <path
       d="M 49.1343,44 H 30.7911 c -1.7818,0 -2.6741,2.1543 -1.4142,3.4142 l 9.1716,9.1716 c 0.781,0.781 2.0474,0.781 2.8284,0 l 9.1716,-9.1716 C 51.8084,46.1543 50.9161,44 49.1343,44 Z"
       stroke="#c2ccde"
       stroke-linecap="round"
       stroke-linejoin="round"
       id="path1"
       style="fill:#565656;fill-opacity:1;stroke:#565656;stroke-opacity:1" />
    <path
       d="M 49.1343,35.9999 H 30.7911 c -1.7818,0 -2.6741,-2.1542 -1.4142,-3.4142 l 9.1716,-9.1715 c 0.781,-0.7811 2.0474,-0.7811 2.8284,0 l 9.1716,9.1715 c 1.2599,1.26 0.3676,3.4142 -1.4142,3.4142 z"
       stroke="#c2ccde"
       stroke-linecap="round"
       stroke-linejoin="round"
       id="path2"
       style="fill:#565656;fill-opacity:1;stroke:#565656;stroke-opacity:1" />
  </g>
</svg>
